<svg xmlns="http://www.w3.org/2000/svg" viewBox="0 0 1000 1000" enable-background="new 0 0 1000 1000"><path fill="#c33" d="M0 0h1000v1000h-1000z"/><g fill="#fff"><path d="M429.2 459.9s63-4.7 63-78.6c0-73.9-51.5-109.9-116.9-109.9h-214.7v412.9h214.8s131.2 4.1 131.2-121.9c0 0 5.6-102.5-77.4-102.5zm-69.3-115.1h15.4s29.2 0 29.2 43c0 42.9-17.2 49.2-36.7 49.2h-112.6v-92.1h104.7zm9.4 266.2h-114.1v-110.4h120.2s43.5-.6 43.5 56.7c0 48.3-32.5 53.3-49.6 53.7zM681.5 376.5c-158.8 0-158.7 158.6-158.7 158.6s-10.9 157.9 158.7 157.9c0 0 141.3 8.1 141.3-109.8h-72.7s2.4 44.4-66.2 44.4c0 0-72.7 4.9-72.7-71.9h214s23.4-179.2-143.7-179.2zm-71.1 124.1s8.9-63.6 72.7-63.6c63.8 0 63 63.6 63 63.6h-135.7zM592.6 295.7h170.4v50.8h-170.4z"/></g></svg>