<?xml version="1.0" encoding="utf-8"?>
<!-- Generator: Adobe Illustrator 19.1.0, SVG Export Plug-In . SVG Version: 6.00 Build 0)  -->
<svg version="1.1" xmlns="http://www.w3.org/2000/svg" xmlns:xlink="http://www.w3.org/1999/xlink" x="0px" y="0px"
	 viewBox="0 0 1000 1000" enable-background="new 0 0 1000 1000" xml:space="preserve">
<g id="Layer_2">
	<rect fill="#CC3333" width="1000" height="1000"/>
</g>
<g id="Layer_1">
	<g>
		<path fill="#FFFFFF" d="M429.2,459.9c0,0,63-4.7,63-78.6c0-73.9-51.5-109.9-116.9-109.9H255.2h-3.5h-91.1v412.9h91.1h3.5h120.2
			c0,0,131.2,4.1,131.2-121.9C506.6,562.4,512.2,459.9,429.2,459.9z M359.9,344.8h15.4c0,0,29.2,0,29.2,43
			c0,42.9-17.2,49.2-36.7,49.2H255.2v-92.1H359.9z M369.3,611H255.2V500.6h120.2c0,0,43.5-0.6,43.5,56.7
			C418.9,605.6,386.4,610.6,369.3,611z"/>
		<path fill="#FFFFFF" d="M681.5,376.5c-158.8,0-158.7,158.6-158.7,158.6S511.9,693,681.5,693c0,0,141.3,8.1,141.3-109.8h-72.7
			c0,0,2.4,44.4-66.2,44.4c0,0-72.7,4.9-72.7-71.9h214C825.2,555.7,848.6,376.5,681.5,376.5z M610.4,500.6c0,0,8.9-63.6,72.7-63.6
			c63.8,0,63,63.6,63,63.6H610.4z"/>
		<rect x="592.6" y="295.7" fill="#FFFFFF" width="170.4" height="50.8"/>
	</g>
</g>
</svg>
