<?xml version="1.0" encoding="utf-8"?>
<!-- Generator: Adobe Illustrator 19.1.0, SVG Export Plug-In . SVG Version: 6.00 Build 0)  -->
<svg version="1.1" id="Layer_1" xmlns="http://www.w3.org/2000/svg" xmlns:xlink="http://www.w3.org/1999/xlink" x="0px" y="0px"
	 viewBox="0 0 54 31.8" enable-background="new 0 0 54 31.8" xml:space="preserve">
<g>
	<path fill="none" stroke="#000000" stroke-miterlimit="10" d="M34,31.2H20c-3.6,0-6.6-2.9-6.6-6.6V10.7c0-3.6,2.9-6.6,6.6-6.6H34
		c3.6,0,6.6,2.9,6.6,6.6v13.9C40.5,28.3,37.6,31.2,34,31.2z"/>
	<circle fill="none" stroke="#000000" stroke-miterlimit="10" cx="27" cy="17.7" r="6.3"/>
	<circle fill="none" stroke="#000000" stroke-miterlimit="10" cx="27" cy="17.7" r="3.1"/>
	<path fill="none" stroke="#000000" stroke-miterlimit="10" d="M35.8,0.6H35c-1,0-1.8,0.8-1.8,1.8v1.8l4.3,1V2.3
		C37.6,1.4,36.8,0.6,35.8,0.6z"/>
	<path fill="none" stroke="#000000" stroke-miterlimit="10" d="M36.3,9.2h-6.1c-0.7,0-1.3-0.6-1.3-1.3V7.8c0-0.7,0.6-1.3,1.3-1.3
		h6.1c0.7,0,1.3,0.6,1.3,1.3v0.1C37.6,8.6,37,9.2,36.3,9.2z"/>
</g>
</svg>
