<svg xmlns="http://www.w3.org/2000/svg" xmlns:xlink="http://www.w3.org/1999/xlink" viewBox="0 0 1000 1000" enable-background="new 0 0 1000 1000"><path fill="#c33" d="M0 0h1000v1000h-1000z"/><g><defs><path id="a" d="M0 0h1000v1000h-1000z"/></defs><clipPath><use xlink:href="#a" overflow="visible"/></clipPath><defs><path id="b" d="M0 0h1000v1000h-1000z"/></defs><clipPath><use xlink:href="#b" overflow="visible"/></clipPath><g fill="#fff"><path d="M171.1 386h141.1v453.3h-141.1v-453.3zm70.6-225.3c45.1 0 81.7 36.6 81.7 81.7s-36.6 81.7-81.7 81.7c-45.3 0-81.8-36.6-81.8-81.7s36.5-81.7 81.8-81.7"/><path d="M400.7 386h135.1v62h1.9c18.8-35.7 64.8-73.2 133.4-73.2 142.6 0 169 93.8 169 215.9v248.6h-140.8v-220.4c0-52.6-1-120.2-73.3-120.2-73.4 0-84.5 57.3-84.5 116.3v224.3h-140.8v-453.3z"/></g></g></svg>