<svg xmlns="http://www.w3.org/2000/svg" xmlns:xlink="http://www.w3.org/1999/xlink" viewBox="0 0 1000 1000" enable-background="new 0 0 1000 1000"><path fill="#c33" d="M0 0h1000v1000h-1000z"/><g><defs><path id="a" d="M0 0h1000v1000h-1000z"/></defs><clipPath><use xlink:href="#a" overflow="visible"/></clipPath><path fill="#EDF0F3" d="M524.7 171.8v165.9h155.7v103h-155.7v168.3c0 38 2 62.4 6 73.3 4.1 10.8 11.5 19.4 22.5 25.9 14.5 8.7 31.1 13.1 49.8 13.1 33.2 0 66.3-10.9 99.1-32.4v103.5c-28 13.2-53.4 22.5-76.2 27.8-22.7 5.3-47.3 8-73.7 8-30 0-56.5-3.8-79.6-11.4-23.1-7.6-42.7-18.4-59-32.4-16.3-14-27.6-28.9-33.9-44.8-6.3-15.7-9.4-38.6-9.4-68.6v-230.3h-72.6v-92.9c25.8-8.3 47.9-20.4 66.2-36 18.4-15.7 33.2-34.4 44.3-56.4 11.1-21.9 18.8-49.8 23-83.7h93.5z"/></g></svg>